<svg xmlns="http://www.w3.org/2000/svg" viewBox="0 0 512.008 512.008"><g fill="#ed5565"><path d="M167.964 191.984h32v64h-32zM263.972 151.984v32l-16.008-11.2-63.992-44.8-64 44.8-16.008 11.2.008-32 80-56z"/></g><g fill="#e6e9ed"><path d="M247.964 172.784v83.2h-47.992l-.008-64h-31.992v64h-48v-83.2l64-44.8z"/><path d="M247.964 172.784v83.2h-47.992l-.008-64h-31.992v64h-48v-83.2l64-44.8z"/><path d="M359.964 184.048c0 89.032-66.136 162.624-151.944 174.328-7.864 1.08-15.896 1.64-24.048 1.64s-16.168-.544-24.032-1.624C74.068 346.608 7.996 273.08 7.94 183.984 7.94 86.8 86.74 8 183.916 8 281.22 8 360.02 86.8 359.964 184.048zM183.98 328.016c79.52-.016 144.016-64.504 144.024-144.032 0-79.528-64.504-144.032-144.032-144.032-79.52.016-144.016 64.504-144.024 144.032 0 79.528 64.504 144.032 144.032 144.032z"/></g><path d="M183.916 8c-5.392 0-10.712.28-15.984.768 89.256 8.032 159.216 82.56 159.984 173.656.016.528.08 1.048.088 1.56 0 2.936-.264 5.816-.44 8.72-4.16 85.096-68.544 154.36-151.544 165.672-2.656.376-5.352.576-8.048.832 5.28.488 10.6.816 16 .816 8.152 0 16.176-.56 24.048-1.64 85.808-11.712 151.944-85.304 151.944-174.336C360.02 86.8 281.22 8 183.916 8z" fill="#ccd1d9"/><path d="M263.972 183.984v-32l-80-56-80 56-.008 32 16.008-11.2v83.2H247.964v-83.2l16.008 11.2zm21.84-101.84c56.224 56.232 56.224 147.44 0 203.688-56.24 56.232-147.456 56.232-203.696 0-56.224-56.248-56.224-147.456 0-203.688 56.248-56.24 147.456-56.24 203.696 0z" fill="#5d9cec"/><path d="M285.812 82.144c-32.192-32.184-75.848-45.872-117.84-41.2 31.36 3.488 61.8 17.16 85.84 41.2 56.224 56.232 56.224 147.44 0 203.688-24.048 24.032-54.488 37.704-85.84 41.2 41.992 4.656 85.648-9.016 117.84-41.2 56.232-56.256 56.232-147.456 0-203.688z" fill="#4a89dc"/><path d="M362.684 328.704l-33.992 34-38.4-38.408a178.34 178.34 0 0018.152-15.832 175.669 175.669 0 0015.84-18.168l38.4 38.408z" fill="#aab2bd"/><path d="M328.692 362.704l33.992-34 11.288-11.28 118.32 118.312c15.6 15.608 15.6 40.968 0 56.56-15.68 15.608-40.96 15.608-56.56 0l-118.32-118.312 11.28-11.28z" fill="#656d78"/><path d="M362.684 328.704l-11.336 11.344 118.32 118.312c11.568 11.576 14.512 28.504 8.912 42.856 4.984-1.968 9.672-4.904 13.712-8.92 15.6-15.592 15.6-40.952 0-56.56l-118.32-118.312-11.288 11.28z" fill="#434a54"/><path d="M103.964 160a7.967 7.967 0 01-6.56-3.416c-2.528-3.616-1.656-8.608 1.968-11.144l80-56c3.6-2.52 8.608-1.656 11.144 1.968 2.528 3.616 1.656 8.608-1.968 11.144l-80 56c-1.4.976-3 1.448-4.584 1.448z"/><path d="M263.948 160a7.97 7.97 0 01-4.576-1.448l-80-56c-3.624-2.528-4.504-7.52-1.968-11.144 2.528-3.624 7.512-4.496 11.144-1.968l80 56c3.624 2.528 4.504 7.52 1.968 11.144a7.992 7.992 0 01-6.568 3.416zM103.964 192a7.967 7.967 0 01-6.56-3.416c-2.528-3.616-1.656-8.608 1.968-11.144l80-56c3.6-2.528 8.608-1.656 11.144 1.968 2.528 3.616 1.656 8.608-1.968 11.144l-80 56c-1.4.976-3 1.448-4.584 1.448z"/><path d="M263.948 192a7.97 7.97 0 01-4.576-1.448l-80-56c-3.624-2.528-4.504-7.52-1.968-11.144 2.528-3.624 7.512-4.504 11.144-1.968l80 56c3.624 2.528 4.504 7.52 1.968 11.144a7.992 7.992 0 01-6.568 3.416zM103.956 192c-4.424 0-8-3.576-8-8v-32c0-4.424 3.576-8 8-8s8 3.576 8 8v32c0 4.424-3.576 8-8 8z"/><path d="M263.956 192c-4.424 0-8-3.576-8-8v-32c0-4.424 3.576-8 8-8s8 3.576 8 8v32c0 4.424-3.576 8-8 8zM119.956 264c-4.424 0-8-3.576-8-8v-83.2c0-4.424 3.576-8 8-8s8 3.576 8 8V256c0 4.424-3.576 8-8 8z"/><path d="M247.956 264h-128c-4.424 0-8-3.576-8-8s3.576-8 8-8h128c4.424 0 8 3.576 8 8 0 4.424-3.576 8-8 8z"/><path d="M247.956 264c-4.424 0-8-3.576-8-8v-83.2c0-4.424 3.576-8 8-8s8 3.576 8 8V256c0 4.424-3.576 8-8 8zM199.956 264h-32c-4.424 0-8-3.576-8-8v-64c0-4.424 3.576-8 8-8h32c4.424 0 8 3.576 8 8v64c0 4.424-3.576 8-8 8zm-24-16h16v-48h-16v48z"/><path d="M183.956 368.008c-49.144 0-95.352-19.144-130.104-53.888-71.744-71.752-71.744-188.488 0-260.216C88.612 19.144 134.812 0 183.964 0s95.36 19.144 130.112 53.896S367.964 134.848 367.964 184s-19.144 95.36-53.896 130.112c-34.76 34.752-80.96 53.896-130.112 53.896zM183.964 16c-44.872 0-87.064 17.48-118.8 49.208C-.34 130.712-.34 237.296 65.164 302.8 96.9 334.528 139.084 352 183.956 352s87.064-17.48 118.8-49.208 49.208-73.92 49.208-118.792-17.472-87.064-49.2-118.792C271.028 33.48 228.836 16 183.964 16z"/><path d="M183.956 336.008c-40.6 0-78.768-15.816-107.48-44.512-59.264-59.272-59.264-155.704 0-214.968C105.188 47.816 143.364 32 183.964 32c40.608 0 78.784 15.816 107.488 44.52 28.704 28.704 44.512 66.88 44.512 107.48s-15.816 78.776-44.52 107.488-66.888 44.52-107.488 44.52zM183.964 48c-36.328 0-70.488 14.152-96.168 39.832-53.024 53.024-53.024 139.312 0 192.344 25.688 25.68 59.832 39.832 96.168 39.832s70.488-14.152 96.168-39.832 39.832-59.848 39.832-96.176-14.144-70.488-39.832-96.168C254.452 62.152 220.3 48 183.964 48zM328.7 370.68a7.978 7.978 0 01-5.656-2.344l-38.408-38.408c-3.128-3.128-3.128-8.184 0-11.312s8.184-3.128 11.312 0l38.408 38.408a7.991 7.991 0 010 11.312 7.978 7.978 0 01-5.656 2.344zM362.644 336.736a7.978 7.978 0 01-5.656-2.344l-38.408-38.408c-3.128-3.128-3.128-8.184 0-11.312s8.184-3.128 11.312 0L368.3 323.08a7.991 7.991 0 010 11.312 7.978 7.978 0 01-5.656 2.344z"/><path d="M317.388 381.992a7.978 7.978 0 01-5.656-2.344 7.991 7.991 0 010-11.312l56.56-56.56c3.128-3.128 8.184-3.128 11.312 0s3.128 8.184 0 11.312l-56.56 56.56a7.992 7.992 0 01-5.656 2.344z"/><path d="M435.684 500.28a7.978 7.978 0 01-5.656-2.344L311.732 379.648c-3.128-3.128-3.128-8.184 0-11.312s8.184-3.128 11.312 0L441.34 486.624a7.991 7.991 0 010 11.312 7.945 7.945 0 01-5.656 2.344zM492.236 443.72a7.978 7.978 0 01-5.656-2.344L368.292 323.088c-3.128-3.128-3.128-8.184 0-11.312s8.184-3.128 11.312 0l118.288 118.288a7.991 7.991 0 010 11.312 7.978 7.978 0 01-5.656 2.344z"/><path d="M463.972 512.008h-.016c-12.824-.008-24.872-5-33.928-14.072-3.128-3.128-3.128-8.192 0-11.312a7.991 7.991 0 0111.312 0c6.04 6.048 14.08 9.376 22.624 9.384h.008c8.544 0 16.576-3.328 22.616-9.376 6.048-6.048 9.376-14.08 9.376-22.624-.008-8.544-3.336-16.584-9.384-22.632-3.128-3.128-3.128-8.184 0-11.312s8.184-3.128 11.312 0c9.072 9.072 14.064 21.128 14.072 33.944 0 12.824-4.992 24.872-14.064 33.936-9.064 9.064-21.104 14.056-33.928 14.064z"/></svg>
