<svg viewBox="0 0 512 512" xmlns="http://www.w3.org/2000/svg"><path d="M394.056 105.562h33.133v68.943h-33.133z" fill="#f1cb86"/><path d="M443.756 194.733h-66.267V164.6a8 8 0 018-8h50.267a8 8 0 018 8zM460.322 73.767c0 27.731-22.712 50.158-50.55 49.693-27.251-.455-48.85-23.257-48.85-50.511V15.783a8.282 8.282 0 018.283-8.283h82.833a8.283 8.283 0 018.283 8.283v57.984z" fill="#ffe07d"/><path d="M435.755 156.6h-23a8 8 0 018 8v30.133h23V164.6a8 8 0 00-8-8zM452.039 7.5H429.04a8.282 8.282 0 018.283 8.283v57.983c0 23.466-16.265 43.13-38.135 48.343a48.785 48.785 0 0010.586 1.35c27.837.465 50.55-21.962 50.55-49.693V15.783a8.285 8.285 0 00-8.285-8.283z" fill="#f1cb86"/><path d="M460.322 227.867h-99.4v-30.133a8 8 0 018-8h83.4a8 8 0 018 8z" fill="#817d84"/><path d="M452.322 189.733h-23a8 8 0 018 8v30.133h23v-30.133a8 8 0 00-8-8z" fill="#756e79"/><g><path d="M150.916 388.533h32v33.133h-32zM304.25 305.7h32v33.133h-32z" fill="#edf6ff"/><path d="M333.311 251v74.833a8 8 0 01-8 8H178.689v74.833a8 8 0 01-8 8H24.067v79.55a8.283 8.283 0 008.283 8.283h447.3a8.283 8.283 0 008.283-8.283V251z" fill="#817d84"/><path d="M464.933 251v245.217a8.282 8.282 0 01-8.283 8.283h23a8.282 8.282 0 008.283-8.283V251z" fill="#756e79"/><g fill="#edf6ff"><path d="M496.5 256H324.745a8 8 0 01-8-8v-17.133a8 8 0 018-8H496.5a8 8 0 018 8V248a8 8 0 01-8 8zM170.689 421.667H15.5a8 8 0 01-8-8v-17.133a8 8 0 018-8h163.189v25.133a8 8 0 01-8 8zM325.311 338.833H170.122a8 8 0 01-8-8V313.7a8 8 0 018-8h163.189v25.133a8 8 0 01-8 8z"/></g><path d="M496.5 222.867h-23a8 8 0 018 8V248a8 8 0 01-8 8h23a8 8 0 008-8v-17.133a8 8 0 00-8-8zM310.311 305.7v25.133a8 8 0 01-8 8h23a8 8 0 008-8V305.7zM155.689 388.533v25.133a8 8 0 01-8 8h23a8 8 0 008-8v-25.133z" fill="#d8e2f3"/></g><path d="M256 73.767h-32.665c-9.065 0-16.803 7.082-17.029 16.144a16.465 16.465 0 004.246 11.486c2.86 3.171 2.656 8.3-.363 11.319L63.057 259.847a8.283 8.283 0 000 11.714l11.714 11.714a8.283 8.283 0 0011.714 0l147.131-147.131c3.087-3.088 8.077-3.287 11.319-.363a16.467 16.467 0 0011.626 4.242c9.007-.298 16.005-8.013 16.005-17.025V90.333c.001-9.149-7.416-16.566-16.566-16.566z" fill="#c1e3a0"/><g><path d="M496.5 215.367h-28.678v-17.633c0-8.547-6.953-15.5-15.5-15.5h-1.066V164.6c0-8.547-6.953-15.5-15.5-15.5h-1.067v-23.41a57.243 57.243 0 0016.039-11.139c9.219-9.066 14.957-20.683 16.595-33.285h9.566c13.271 0 24.067-10.796 24.067-24.066V24.067c0-8.703-7.081-15.784-15.784-15.784h-19.249C463.25 3.354 458.029 0 452.039 0h-82.833c-5.99 0-11.211 3.354-13.885 8.283h-19.249c-8.703 0-15.783 7.081-15.783 15.784V57.2c0 13.27 10.796 24.066 24.066 24.066h9.669c2.817 19.561 15.399 36.096 32.531 44.25V149.1h-1.066c-8.547 0-15.5 6.953-15.5 15.5v17.633h-1.067c-8.547 0-15.5 6.953-15.5 15.5v17.633h-28.678c-8.547 0-15.5 6.953-15.5 15.5V248c0 8.547 6.953 15.5 15.5 15.5h1.067v34.7h-92.96c-4.143 0-7.5 3.358-7.5 7.5s3.357 7.5 7.5 7.5h92.96v18.133H170.123a.5.5 0 01-.5-.5V313.7a.5.5 0 01.5-.5h32.729c4.143 0 7.5-3.358 7.5-7.5s-3.357-7.5-7.5-7.5h-32.729c-8.547 0-15.5 6.953-15.5 15.5v17.133c0 8.547 6.953 15.5 15.5 15.5h1.066v34.7H15.5c-8.547 0-15.5 6.953-15.5 15.5v17.133c0 8.547 6.953 15.5 15.5 15.5h1.066v67.05c0 8.703 7.08 15.783 15.783 15.783h25.625c4.143 0 7.5-3.358 7.5-7.5s-3.357-7.5-7.5-7.5H32.35a.784.784 0 01-.783-.783v-17.35h448.867v17.35a.784.784 0 01-.783.783H87.976c-4.143 0-7.5 3.358-7.5 7.5s3.357 7.5 7.5 7.5H479.65c8.703 0 15.783-7.08 15.783-15.783V263.5h1.066c8.547 0 15.5-6.953 15.5-15.5v-17.133c.001-8.547-6.952-15.5-15.499-15.5zm-10.544-191.3V57.2c0 4.999-4.067 9.066-9.067 9.066h-9.066V23.283h17.35c.431 0 .783.352.783.784zM335.289 57.2V24.067c0-.432.352-.784.783-.784h17.35v42.983h-9.066c-5 .001-9.067-4.067-9.067-9.066zm33.133 15.749V15.783c0-.432.352-.783.784-.783h82.833c.432 0 .783.352.783.783v57.983c0 11.405-4.479 22.091-12.612 30.09-8.13 7.995-18.859 12.294-30.312 12.104-22.87-.381-41.476-19.676-41.476-43.011zm33.134 57.275a55.67 55.67 0 009.077.742c3.063 0 6.087-.251 9.056-.721V149.1h-18.133zM384.989 164.6a.5.5 0 01.5-.5h50.267a.5.5 0 01.5.5v17.633h-51.267zm-16.567 33.133a.5.5 0 01.5-.5h83.4a.5.5 0 01.5.5v17.633h-84.4zM15 413.667v-17.133a.5.5 0 01.5-.5h155.689v18.133H15.5a.501.501 0 01-.5-.5zm465.434 50.2H31.566v-34.7h147.122a7.5 7.5 0 007.5-7.5v-75.333h147.123a7.5 7.5 0 007.5-7.5V263.5h139.622v200.367zM497 248a.5.5 0 01-.5.5H324.744a.5.5 0 01-.5-.5v-17.133a.5.5 0 01.5-.5H496.5a.5.5 0 01.5.5z"/><path d="M434.689 40.633a7.5 7.5 0 00-7.5-7.5h-33.133c-4.143 0-7.5 3.358-7.5 7.5s3.357 7.5 7.5 7.5h33.133a7.5 7.5 0 007.5-7.5zM69.468 288.579a15.678 15.678 0 0011.161 4.623c4.216 0 8.18-1.642 11.16-4.623l147.132-147.132c.283-.282.735-.327.992-.096 4.641 4.185 10.631 6.366 16.896 6.168 12.824-.424 23.257-11.424 23.257-24.521V90.334c0-13.271-10.796-24.067-24.066-24.067h-32.665c-13.202 0-24.205 10.523-24.527 23.457a23.936 23.936 0 006.174 16.696c.145.16.144.753-.097.993L57.753 254.544c-6.152 6.154-6.152 16.167.001 22.321zM68.36 265.15l147.132-147.132c5.842-5.843 6.123-15.553.629-21.644a8.992 8.992 0 01-2.317-6.277c.121-4.87 4.396-8.831 9.531-8.831H256c4.999 0 9.066 4.067 9.066 9.067v32.665c0 5.095-3.927 9.369-8.753 9.529a8.972 8.972 0 01-6.355-2.315c-6.196-5.589-15.705-5.312-21.645.629L81.182 277.973a.785.785 0 01-1.107-.001L68.36 266.259a.786.786 0 010-1.109z"/></g></svg>