<svg id="Layer_2" enable-background="new 0 0 96 96" height="512" viewBox="0 0 96 96" width="512" xmlns="http://www.w3.org/2000/svg"><path d="m15 10v28h-12v31c0 4.418 3.582 8 8 8s8-3.582 8-8v-59z" fill="#dfdddc"/><path d="m11 77c4.418 0 8-3.582 8-8v-66h59v74z" fill="#e5e5e5"/><path d="m87 67h6v26h-6z" fill="#5e92bc"/><path d="m81 52h6v41h-6z" fill="#6ebaed"/><path d="m75 61h6v32h-6z" fill="#5e92bc"/><path d="m69 71h6v22h-6z" fill="#6ebaed"/><path d="m63 81h6v12h-6z" fill="#5e92bc"/><path d="m57 86h6v7h-6z" fill="#6ebaed"/><path d="m31 10h34v6h-34z" fill="#6ebaed"/><path d="m26 28h45v22h-45z" fill="#ef6662"/><path d="m52 54h19v12h-19z" fill="#f2ae40"/><path d="m11 73c-2.209 0-4-1.791-4-4v-34h8v34c0 2.209-1.791 4-4 4z" fill="#c9c7c6"/><path d="m11 38c-.553 0-1 .448-1 1v30c0 .552.447 1 1 1s1-.448 1-1v-30c0-.552-.447-1-1-1z"/><path d="m93 66h-5v-14c0-.552-.447-1-1-1h-8v-18c0-.552-.447-1-1-1s-1 .448-1 1v19c0 .552.447 1 1 1h8v14c0 .552.447 1 1 1h5v24h-4v-21c0-.552-.447-1-1-1s-1 .448-1 1v21h-4v-36c0-.552-.447-1-1-1s-1 .448-1 1v4h-5c-.553 0-1 .448-1 1v9h-5c-.553 0-1 .448-1 1v5h-51.356c2.044-1.651 3.356-4.174 3.356-7v-65h57v17c0 .552.447 1 1 1s1-.448 1-1v-18c0-.552-.447-1-1-1h-59c-.553 0-1 .448-1 1v6h-3c-.553 0-1 .448-1 1v59c0 1.654-1.346 3-3 3s-3-1.346-3-3v-33h3c.553 0 1-.448 1-1s-.447-1-1-1h-4c-.553 0-1 .448-1 1v2h-3c-.553 0-1 .448-1 1v31c0 4.962 4.037 9 9 9h58c.553 0 1-.448 1-1v-5h4v20h-4v-11c0-.552-.447-1-1-1h-6c-.553 0-1 .448-1 1v4h-5c-.553 0-1 .448-1 1v6h-22c-.553 0-1 .448-1 1s.447 1 1 1h59c.553 0 1-.448 1-1v-26c0-.552-.447-1-1-1zm-82 10c-3.859 0-7-3.14-7-7v-30h2v30c0 2.757 2.243 5 5 5s5-2.243 5-5v-58h2v58c0 3.86-3.141 7-7 7zm51 16h-2-2v-5h4zm6 0h-4v-10h4zm12 0h-4v-30h4z"/><path d="m66 16v-6c0-.552-.447-1-1-1h-34c-.553 0-1 .448-1 1v6c0 .552.447 1 1 1h34c.553 0 1-.448 1-1zm-2-1h-32v-4h32z"/><path d="m25 28v10c0 .552.447 1 1 1s1-.448 1-1v-9h43c0 .552.447 1 1 1s1-.448 1-1v-1c0-.552-.447-1-1-1h-45c-.553 0-1 .448-1 1z"/><path d="m93.382 11.077c-.122-.05-.252-.077-.382-.077h-6c-.553 0-1 .448-1 1s.447 1 1 1h3.586l-31.086 31.086-11.293-11.293c-.391-.391-1.023-.391-1.414 0l-8.793 8.793-5.293-5.293c-.391-.391-1.023-.391-1.414 0l-5.999 5.999c-.093.092-.166.203-.217.326-.05.122-.077.252-.077.382v7c0 .552.447 1 1 1h45c.553 0 1-.448 1-1v-11c0-.552-.447-1-1-1s-1 .448-1 1v10h-3v-3c0-.552-.447-1-1-1s-1 .448-1 1v3h-2v-1c0-.552-.447-1-1-1s-1 .448-1 1v1h-2c0-.552-.447-1-1-1s-1 .448-1 1h-2v-3c0-.552-.447-1-1-1s-1 .448-1 1v3h-2v-7c0-.552-.447-1-1-1s-1 .448-1 1v7h-2v-7c0-.552-.447-1-1-1s-1 .448-1 1v7h-2v-3c0-.552-.447-1-1-1s-1 .448-1 1v3h-2v-2c0-.552-.447-1-1-1s-1 .448-1 1v2h-2v-4c0-.552-.447-1-1-1s-1 .448-1 1v4h-2v-4c0-.552-.447-1-1-1s-1 .448-1 1v4h-2v-5.586l5-5 5.293 5.293c.391.391 1.023.391 1.414 0l8.793-8.793 11.293 11.293c.195.195.451.293.707.293s.512-.098.707-.293l31.793-31.793v3.586c0 .552.447 1 1 1s1-.448 1-1v-6c0-.13-.026-.26-.077-.382-.101-.245-.296-.44-.541-.541z"/><circle cx="30" cy="93" r="1"/><circle cx="26" cy="93" r="1"/><circle cx="22" cy="93" r="1"/><path d="m33 54h-7c-.553 0-1 .448-1 1s.447 1 1 1h7c.553 0 1-.448 1-1s-.447-1-1-1z"/><path d="m47 54h-10c-.553 0-1 .448-1 1s.447 1 1 1h10c.553 0 1-.448 1-1s-.447-1-1-1z"/><path d="m25 60c0 .552.447 1 1 1h12c.553 0 1-.448 1-1s-.447-1-1-1h-12c-.553 0-1 .448-1 1z"/><path d="m47 59h-5c-.553 0-1 .448-1 1s.447 1 1 1h5c.553 0 1-.448 1-1s-.447-1-1-1z"/><path d="m33 21c-.553 0-1 .448-1 1s.447 1 1 1h8c.553 0 1-.448 1-1s-.447-1-1-1z"/><path d="m45 21c-.553 0-1 .448-1 1s.447 1 1 1h8c.553 0 1-.448 1-1s-.447-1-1-1z"/><path d="m26 66h2c.553 0 1-.448 1-1s-.447-1-1-1h-2c-.553 0-1 .448-1 1s.447 1 1 1z"/><path d="m41 65c0-.552-.447-1-1-1h-8c-.553 0-1 .448-1 1s.447 1 1 1h8c.553 0 1-.448 1-1z"/><path d="m52 71h2c.553 0 1-.448 1-1s-.447-1-1-1h-2c-.553 0-1 .448-1 1s.447 1 1 1z"/><path d="m58 69c-.553 0-1 .448-1 1s.447 1 1 1h7c.553 0 1-.448 1-1s-.447-1-1-1z"/><path d="m47 64h-3c-.553 0-1 .448-1 1s.447 1 1 1h3c.553 0 1-.448 1-1s-.447-1-1-1z"/><path d="m26 71h8c.553 0 1-.448 1-1s-.447-1-1-1h-8c-.553 0-1 .448-1 1s.447 1 1 1z"/><path d="m38 71h9c.553 0 1-.448 1-1s-.447-1-1-1h-9c-.553 0-1 .448-1 1s.447 1 1 1z"/><path d="m72 66v-12c0-.552-.447-1-1-1h-19c-.553 0-1 .448-1 1v12c0 .552.447 1 1 1h19c.553 0 1-.448 1-1zm-2-1h-17v-10h17z"/><path d="m56.707 62.707 2.293-2.293 2.293 2.293c.195.195.451.293.707.293s.512-.098.707-.293l4-4c.391-.391.391-1.023 0-1.414s-1.023-.391-1.414 0l-3.293 3.293-2.293-2.293c-.391-.391-1.023-.391-1.414 0l-3 3c-.391.391-.391 1.023 0 1.414s1.023.391 1.414 0z"/><path d="m57 21c-.553 0-1 .448-1 1s.447 1 1 1h6c.553 0 1-.448 1-1s-.447-1-1-1z"/></svg>