<svg xmlns="http://www.w3.org/2000/svg" viewBox="0 0 512.004 512.004"><path d="M388.24 44.239h44.118v88.236H388.24V44.239z" fill="#0071bc"/><path d="M150.002 432.479V150.123l141.178-97.06 141.178 97.06v282.356H150.002z" fill="#ccc"/><path d="M114.707 344.242v123.531H44.118V344.242h70.589z" fill="#29abe2"/><path d="M44.118 353.066V458.95H0V353.066h44.118z" fill="#ccc"/><path d="M114.707 451.194l78.027 32.4a144.172 144.172 0 00105.813 1.165l136.307-51.971c12.256-4.782 18.318-18.591 13.544-30.847-.026-.062-.044-.115-.071-.176-4.588-11.965-18.009-17.947-29.974-13.359l-.662.265-73.774 31.324a45.672 45.672 0 01-12.741 3.132c11.894-2.656 19.377-14.444 16.73-26.33-2.241-10.05-11.135-17.206-21.433-17.259h-68.445a53.477 53.477 0 01-23.894-5.638 197.253 197.253 0 00-88.236-20.833h-31.192v98.127z" fill="#f2c09a"/><g fill="#e9937c"><path d="M234.17 373.846a53.443 53.443 0 0023.886 5.638h68.418c12.185 0 22.059 9.874 22.059 22.059-.018 3.018-.662 6-1.888 8.762a22.06 22.06 0 00-20.171-13.174h-68.418a53.447 53.447 0 01-23.886-5.638 197.253 197.253 0 00-88.236-20.833h-31.227v-17.647h31.218c30.636 0 60.848 7.13 88.245 20.833z"/><path d="M448.355 401.702a23.923 23.923 0 01-.053 17.585c-4.65-11.938-18.097-17.85-30.036-13.2-.185.071-.371.15-.547.221l-73.766 31.324a46 46 0 01-17.991 3.671H220.591v-17.7h105.372c6.185 0 12.3-1.244 17.991-3.662l73.766-31.324c11.815-4.959 25.412.6 30.362 12.415.097.22.185.441.273.67z"/></g><path d="M79.413 168.767c0 10.138 8.215 18.353 18.353 18.353 3.627 0 7.174-1.076 10.182-3.079L291.18 61.886 474.411 184.04c8.435 5.621 19.827 3.344 25.456-5.091a18.411 18.411 0 003.079-10.182 18.38 18.38 0 00-8.171-15.274L291.18 17.768 87.583 153.493a18.368 18.368 0 00-8.17 15.274z" fill="#29abe2"/><circle cx="291.18" cy="238.324" r="79.413" fill="#fed856"/><path d="M499.665 146.161l-60.248-40.156h1.765V44.239c0-4.871-3.953-8.824-8.824-8.824H388.24c-4.871 0-8.824 3.953-8.824 8.824v21.75L296.077 10.4a8.832 8.832 0 00-9.794 0L82.695 146.161c-12.574 8.197-16.121 25.033-7.924 37.606s25.033 16.121 37.606 7.924c.159-.106.318-.203.468-.309l28.333-18.891v171.752h-17.647c0-4.871-3.953-8.824-8.824-8.824H44.118c-4.871 0-8.824 3.953-8.824 8.824H0v17.647h35.295v88.236H0v17.647h35.295c0 4.871 3.953 8.824 8.824 8.824h70.589c4.871 0 8.824-3.953 8.824-8.824v-3.362l65.877 27.353a152.737 152.737 0 00112.29 1.235l136.307-51.962a32.107 32.107 0 0018.018-17.18 32.648 32.648 0 00.521-25.333 32.04 32.04 0 00-15.362-16.827V172.491l28.333 18.891c12.397 8.453 29.312 5.259 37.765-7.147 8.453-12.397 5.259-29.312-7.147-37.765a9.723 9.723 0 00-.469-.309zM397.063 53.063h26.471v42.353l-26.471-17.647V53.063zM105.884 458.95H52.942V353.066h52.942V458.95zm334-42.221a14.596 14.596 0 01-8.171 7.818l-136.307 51.971a134.988 134.988 0 01-99.283-1.076l-72.592-30.15V361.89h22.368a189.348 189.348 0 0184.292 19.906 62.592 62.592 0 0027.839 6.565h68.445c7.306.044 13.2 6 13.156 13.315a13.232 13.232 0 01-10.235 12.812c-1.156.106-2.294.344-3.468.344H220.591v17.647h105.883c.176 0 .344-.053.529-.053a54.582 54.582 0 0020.365-4.306l73.774-31.324c3.512-1.5 7.491-1.5 11.003 0a14.626 14.626 0 017.941 8.224 15.173 15.173 0 01-.202 11.709zm-16.35-38.41a32.033 32.033 0 00-9.291 2.224l-57.212 24.3c.168-1.077.274-2.162.326-3.247 0-17.056-13.827-30.883-30.883-30.883h-68.445a44.99 44.99 0 01-19.95-4.703 207.18 207.18 0 00-79.254-21.327V160.711L291.18 72.475l132.354 88.236v217.608zm65.56-201.178a9.448 9.448 0 01-9.794-.468L296.077 54.545a8.832 8.832 0 00-9.794 0L103.06 176.699c-4.385 2.921-10.306 1.729-13.227-2.656a9.563 9.563 0 01-1.597-5.285 9.502 9.502 0 014.244-7.941l198.7-132.46 198.699 132.487a9.504 9.504 0 014.244 7.941 9.389 9.389 0 01-5.029 8.382v-.026z"/><path d="M70.589 423.655h17.647v17.647H70.589v-17.647zM282.356 185.417v10.103c-13.235 4.121-20.621 18.186-16.509 31.412a25.125 25.125 0 0012.785 15.018l17.197 8.603a7.537 7.537 0 01-3.361 14.277h-2.577a7.553 7.553 0 01-7.535-7.535v-1.288h-17.647v1.288a25.137 25.137 0 0017.647 23.903v10.103h17.647v-10.103c13.235-4.121 20.621-18.186 16.509-31.412a25.125 25.125 0 00-12.785-15.018l-17.197-8.603a7.537 7.537 0 013.361-14.277h2.577a7.553 7.553 0 017.535 7.535v1.288h17.647v-1.288a25.137 25.137 0 00-17.647-23.903v-10.103h-17.647z"/><path d="M202.943 238.359c0 48.733 39.503 88.236 88.236 88.236s88.236-39.503 88.236-88.236-39.503-88.236-88.236-88.236c-48.706.053-88.183 39.521-88.236 88.236zm158.826 0c0 38.983-31.606 70.589-70.589 70.589s-70.589-31.606-70.589-70.589 31.606-70.589 70.589-70.589c38.965.044 70.545 31.624 70.589 70.589z"/><path d="M326.474 229.535h17.647v17.647h-17.647v-17.647zM238.238 229.535h17.647v17.647h-17.647v-17.647z"/></svg>