<svg viewBox="0 0 512 512" xmlns="http://www.w3.org/2000/svg"><path d="M80 464V56h264l56 56v352z" fill="#85bb40"/><path d="M80 56l320 408H80z" fill="#85b140"/><path d="M344 56v56h56z" fill="#d1df87"/><path d="M256 328v160H48V328l104-56z" fill="#e4e4e3"/><path d="M88 376h48v112H88zM168 392h48v40h-48z" fill="#0093b9"/><path d="M256 328v21.5L152 304 48 349.5V328l104-56z" fill="#cacac9"/><path d="M24 304l128-56 128 56v40l-128-56-128 56zM272 400c-16 0-24 16-24 32s-16 16-16 32.232S248 488 256 488h32c8 0 24-7.537 24-23.768S296 448 296 432s-8-32-24-32z" fill="#0093b9"/><path d="M480.734 198.041L350.766 390.219l-31.18 17.543 4.673-35.47 129.968-192.178a16 16 0 0122.217-4.29 16 16 0 014.29 22.217z" fill="#fbbe1f"/><path d="M88 64h24v32a24 24 0 0048 0V80h-16v16a8 8 0 01-16 0V48a16 16 0 0132 0h-16v16h192v48a8 8 0 008 8h48v96h16V112a8 8 0 00-2.343-5.657l-56-56A8 8 0 00344 48H176a32 32 0 00-64 0H80a8 8 0 00-8 8v192h16zm264 11.313L380.687 104H352zM392 456h-56v16h64a8 8 0 008-8V360h-16zM168 384a8 8 0 00-8 8v40a8 8 0 008 8h48a8 8 0 008-8v-40a8 8 0 00-8-8zm40 40h-32v-24h32zM104 336h16v16h-16z"/><path d="M304 432c0-19.878-10.992-40-32-40s-32 20.122-32 40c0 4.485-1.727 6.414-5.634 10.35-4.375 4.406-10.366 10.44-10.366 21.881A29.884 29.884 0 00228.423 480H144V376a8 8 0 00-8-8H88a8 8 0 00-8 8v104H56V338.732l96-42 96 42V384h16v-38.268l12.793 5.6A8 8 0 00288 344v-40a8 8 0 00-4.793-7.329l-128-56a8 8 0 00-6.414 0l-128 56A8 8 0 0016 304v40a8 8 0 0011.207 7.329L40 345.732V480H16v16h272c6.385 0 14.022-2.873 19.93-7.5A30.364 30.364 0 00320 464.231c0-11.441-5.991-17.475-10.365-21.881-3.909-3.936-5.635-5.865-5.635-10.35zM32 331.768v-22.536l120-52.5 120 52.5v22.536l-8-3.5V328h-.612l-108.181-47.329a8 8 0 00-6.414 0L40.612 328H40v.268zM96 384h32v96H96zm192 96h-32c-4.406 0-16-4.849-16-15.769 0-4.652 1.753-6.614 5.72-10.609C250.058 449.252 256 443.268 256 432c0-18.984 10.466-24 16-24 12.656 0 16 15.7 16 24 0 11.268 5.941 17.252 10.279 21.622 3.966 4 5.72 5.957 5.72 10.609C304 475.151 292.4 480 288 480zM468.452 230.483l18.909-27.961a24 24 0 10-39.761-26.889L317.632 367.811a8 8 0 00-1.3 3.436l-4.673 35.471a8 8 0 0011.854 8.016l31.18-17.544a7.986 7.986 0 002.7-2.49l101.82-150.556 11.013 12.277-32.354 47.841 13.253 8.963 35.854-53.015a8 8 0 00-.672-9.823zm-7.6-45.887a8 8 0 1113.253 8.964l-16.668 24.646-11.013-12.277zM345.2 384.173l-15.591 8.771 2.337-17.735 21.35-31.569 13.254 8.963zm30.313-44.823l-13.254-8.964 74.93-110.8 11.011 12.281zM136 144h16v16h-16zM168 144h192v16H168zM120 176h240v16H120zM120 208h240v16H120zM240 240h120v16H240zM304 272h24v16h-24z"/></svg>