<svg xmlns="http://www.w3.org/2000/svg" viewBox="0 0 512 512"><title>female-1</title><circle cx="256" cy="256" r="256" style="fill:#f0f"/><path d="M389,258c-1.38,14.45-52.28,122.13-52.28,122.13l-121.67-2.46s-76.07-55.7-81.57-97-2.37-79.83-2.37-79.83l256.3-6.27Z" style="fill:#813f29;stroke:#251e1c;stroke-miterlimit:22.925600000000003;stroke-width:0.5669000000000001px;fill-rule:evenodd"/><path d="M337.37,463.52c2.75-2.06,39.36-74.33,39.36-74.33,27.33,9,35.21,86.62,38,122.81H349.44Z" style="fill:#c3a9c7;fill-rule:evenodd"/><path d="M258.41,338H229.6v18.21c0,21.59-57.29,23.56-76.74,29.77,5.25,45.06,47,78.11,108.42,120.15h14.87c25-37.22,87.9-60,89.37-120.15-19.71-6.3-78.33-7.93-78.3-29.77V338Z" style="fill:#e7be86;fill-rule:evenodd"/><path d="M183.07,455.27c-2.74-2.07-41.42-66.08-41.42-66.08-27.32,9-35.2,86.62-38,122.81H169Z" style="fill:#c3a9c7;fill-rule:evenodd"/><path d="M152.86,386c-7,1.62-12.16,3.17-13.82,4.6,31.2,59.3-14.86,83.09,2.12,121.4H377.23c17-38.31-29.08-62.1,2.11-121.4-1.66-1.43-6.83-3-13.82-4.6-7.66,39.38-52.34,69.6-106.33,69.6S160.52,425.38,152.86,386Z" style="fill:#ccb0cf;fill-rule:evenodd"/><path d="M261.58,20.91h-.37l-16.94-.67,0,1.34-1.78.08C208.14,23,175.76,41.58,155,69.83s-23.54,63.89-21.9,98c4.21,87.63,53.23,186,128.49,186.75,75.27-.73,124.29-99.12,128.5-186.75,1.64-34.1-1.12-69.71-21.91-98S315,23,280.64,21.67l-1.78-.08,0-1.34L262,20.92Z" style="fill:#eac797;fill-rule:evenodd"/><path d="M351.34,181.74c5.9,2.45-3.91-13.56-32.91-14.19-33.8-.74-44.09,15.54-30.77,10.87C316.39,168.33,342,177.86,351.34,181.74Z" style="fill:#b2592e;fill-rule:evenodd"/><path d="M205.75,213.27a10,10,0,1,0-10-10A10,10,0,0,0,205.75,213.27Z" style="fill:#3f3d3d;fill-rule:evenodd"/><ellipse cx="318.06" cy="203.3" rx="9.96" ry="9.97" style="fill:#3f3d3d"/><path d="M222.35,284.13a79.51,79.51,0,0,0,76.6,0C292.92,322.9,228.89,321.7,222.35,284.13Z" style="fill:#c0805d;fill-rule:evenodd"/><path d="M239.1,262.94c-.11,0-.13-.13,0-.3a2,2,0,0,1,.81-1.45C244,253.3,252,230.3,255.71,205c4,.25-4,43.06-7.47,53.28a73.81,73.81,0,0,1,12.38-1c11.9,0,21.55,2.39,21.55,5.33S272.52,268,260.62,268C249.13,268,239.74,265.75,239.1,262.94Z" style="fill:#d6ae7f;fill-rule:evenodd"/><path d="M170.1,182c-5.9,2.45,3.91-13.56,32.91-14.19,33.8-.74,44.09,15.54,30.77,10.86C205,168.59,179.46,178.11,170.1,182Z" style="fill:#b2592e;fill-rule:evenodd"/><path d="M170.2,52.76C217.14,80.51,359.25,127,355.1,265.34c0,0,10-55.41,10.3-52.81s7.22,36.79-3.09,87.44-52.2,109.84-50.48,107.24,45.68-23.93,71.43-83C458.07,152.7,398.51-32.39,220.74,4.82,182.58,12.81,153.29,42.75,170.2,52.76Z" style="fill:#b2592e;fill-rule:evenodd"/><path d="M222.35,69.55c-98.56,52.11-59.06,232.19-19.8,292.66,18.77,28.92,38,47.72,31.28,41.94s-55.35-1.93-107.34-100.26C84.68,224.82,70.86,26.27,200.62,26.27Z" style="fill:#b2592e;fill-rule:evenodd"/><path d="M129.6,126c5.5-4.82,32.33-36.79,32.33-36.79C136.16,197.53,183.72,288.34,183.52,288,143.73,219.69,138.05,204,129.6,126Z" style="fill:#b2592e;fill-rule:evenodd"/></svg>