<svg xmlns="http://www.w3.org/2000/svg" viewBox="0 0 512 512"><title>female-2</title><circle cx="256" cy="256" r="256" style="fill:#009245"/><path d="M127.28,177.24c.71,7.08,16.37,68,11.06,112.61s-15.75,87.65-15.75,87.65c97.92,20.44,159.33,8.78,254.79-6.26,0,0,6.21-29.06-5.4-84.26s14.81-118.27,14.81-118.27Z" style="fill:#43231a;fill-rule:evenodd"/><path d="M315,26.63C503.57-5.62,325.07,287.87,424.66,363.39c14.2,10.76-64.76,58.16-94.2,9.34-18.46-30.6,41.9-86.53,45.79-165.25S352.39,101.66,335.46,71.94,315,26.63,315,26.63Z" style="fill:#43231a;fill-rule:evenodd"/><path d="M340.89,38.33C346,83,334.08,88.38,298.12,112.19s-51.5,23.82-45.67,20.9,33.53-51,33.53-51-37.42,30.13-75.32,45.19-51.51,9.23-51.51,9.23,33.53-43.73,29.15-40.33-36.44,24.3-40.81,34-13.71,53.41-8.37,101.52,55.79,139.65,27.12,158.6c-38.55,25.49-87.75-21.63-79.72-23.67,59.94-15.2,27.87-246.93,29.86-260.74,5.11-35.41,25.08-61.19,47.4-79C211.57-11.18,335.38-10.11,340.89,38.33Z" style="fill:#43231a;fill-rule:evenodd"/><path d="M312.54,434.1c2.83-2.12,64.31-48.56,64.31-48.56C405,394.84,413.15,474.74,416,512H348.71Z" style="fill:#bf322b;fill-rule:evenodd"/><path d="M254.85,332.84H225.14v18.75c0,11.66-1.92,9.23-12.81,15.29,0,0-10.5,8.61-13.7,9.64C211.84,419,221.38,473.66,247.18,512h15.33c25.81-38.34,35.35-93,48.55-135.48-3.2-1-13.7-9.64-13.7-9.64-10.88-6.06-12.82-3.63-12.8-15.29V332.84Z" style="fill:#e4b480;fill-rule:evenodd"/><path d="M198.77,434.1c-2.83-2.12-64.31-48.56-64.31-48.56-28.17,9.3-36.3,89.2-39.17,126.46H162.6Z" style="fill:#bf322b;fill-rule:evenodd"/><path d="M212.32,367c-15.84,7.22-70.47,13.6-76.93,19.2,5.24,11.48,38.07,66.47,17,125.76H359c-9.06-64.24,15.34-113.53,20.59-125-6.47-5.6-65.05-11.85-80.89-19.07,19.21,14.9-15.4,60.76-43.8,62.74C226.34,428.65,193.38,381.73,212.32,367Z" style="fill:#c53b2a;fill-rule:evenodd"/><path d="M167.53,186.4c4.93,22.13-4.86,40.56-21.62,44.54s-34.13-8-39-30.17,4.67-43.3,21.43-47.26S162.61,164.26,167.53,186.4Z" style="fill:#e7be86;fill-rule:evenodd"/><path d="M348.7,186.4c-4.92,22.13,4.87,40.56,21.63,44.54s34.13-8,39-30.17-4.66-43.3-21.42-47.26S353.63,164.26,348.7,186.4Z" style="fill:#e7be86;fill-rule:evenodd"/><path d="M258.12,6.3h-.38l-17.47-.69,0,1.38-1.84.08C203,8.49,169.63,27.59,148.22,56.68s-24.28,65.79-22.59,100.91c4.34,90.23,54.89,191.55,132.49,192.3,77.6-.75,128.15-102.07,132.49-192.3,1.69-35.12-1.16-71.8-22.59-100.91s-54.8-48.19-90.25-49.6L275.93,7l0-1.38-17.47.69Z" style="fill:#eac797;fill-rule:evenodd"/><path d="M195,13.3c1-3.61,50.39-10.51,55.06-10.8,27.55-1.7,63.48,4,80.74,13.46s41.08,34,44.62,43.2,2.83,9.91-41.08,40.37-109.77,44.41-92.78,38.95S272.34,105,272.34,105s-11.65,13.7-69.72,34.24-73.33,14.1-73.33,14.1S110.77,126,120.9,92.59s18.5-36,37.81-55.39S195,13.3,195,13.3Z" style="fill:#43231a;fill-rule:evenodd"/><path d="M313.27,41.26c-1.06,5-.11,31.52,30.46,72.24s32.93,44.26,32.93,44.26.91,74.54,1.27,71.36,16.36-77.25,16.36-77.25,4.32-31.64-3.47-63.51S373.2,44.47,359.69,39.1,313.27,41.26,313.27,41.26Z" style="fill:#43231a;fill-rule:evenodd"/><path d="M142.94,127.31c-5.31,6-21.59,19.91-21.59,19.91l17.56,82.48Z" style="fill:#43231a;fill-rule:evenodd"/><path d="M148.48,382.25c-7.2,1.67-12.54,3.26-14.25,4.74,32.17,61.06-15.32,85.55,2.18,125H379.82c17.51-39.46-30-63.95,2.18-125-1.71-1.48-7-3.07-14.24-4.74-7.9,40.55-54,71.67-109.64,71.67S156.38,422.8,148.48,382.25Z" style="fill:#c53b2a;fill-rule:evenodd"/><path d="M254.85,430.66c-19.49-1.37-41.06-23.74-46.71-42.44-2.61-8.66-1.81-16.53,4.18-21.18l-.4.17c-1.23.54-2.67,1.08-4.29,1.61-7.56,3.27-22,10.26-26.83,17.64a7.89,7.89,0,0,0-1.47,5.8c2.3,12,20.89,12.4,20.89,12.4s-1.06,5,.36,14c2.66,17,9.4,26.05,18,28.63C229.15,450.41,242.51,444,254.85,430.66Z" style="fill:#ededed;fill-rule:evenodd"/><path d="M254.85,430.66c19.49-1.37,41.06-23.74,46.7-42.44,2.62-8.66,1.81-16.69-4.19-21.34a47.64,47.64,0,0,0,4.71,1.94c7.55,3.27,22,10.26,26.82,17.64a7.94,7.94,0,0,1,1.48,5.8c-2.3,12-20.9,12.4-20.9,12.4s1.07,5-.35,14c-2.67,17-9.4,26.05-18.05,28.63C280.54,450.41,267.18,444,254.85,430.66Z" style="fill:#ededed;fill-rule:evenodd"/><path d="M251.09,194.06a26.76,26.76,0,0,1,14.06,0c2.55.84,4.2,3,5.08,6.26,1,3.66,1.92,7.34,3,11,2.16,7.44,4.77,14.57,8.57,20.84C288,242.42,298.2,243.81,307.45,245c18.44,2.34,32.46,2.61,50.78-1.79a30.66,30.66,0,0,0,7.26-2.87,18.54,18.54,0,0,0,8-9.3,126.66,126.66,0,0,0,5-14.2c1.06-3.49,2.08-7,3.13-10.5a18.85,18.85,0,0,1,3-6,51.07,51.07,0,0,0,3-5.09,8.92,8.92,0,0,0,1-3.87c.22-4.83.46-9.87.54-14.7.22-13-59.48-10.74-66.41-10.43-3.15.14-6.29.33-9.43.61-9.21.82-24.13,2.52-32.92,5.73-3.89,1.41-17.13,5.64-22.29,5.16-5.16.48-18.4-3.75-22.29-5.16-8.79-3.21-23.71-4.91-32.92-5.73-3.14-.28-6.28-.47-9.42-.61-6.94-.31-66.64-2.55-66.42,10.43.08,4.83.32,9.87.54,14.7a8.92,8.92,0,0,0,1,3.87,49.23,49.23,0,0,0,3,5.09,19.08,19.08,0,0,1,3,6c1,3.5,2.06,7,3.12,10.5a126.66,126.66,0,0,0,5,14.2,18.54,18.54,0,0,0,8,9.3A30.66,30.66,0,0,0,158,243.2c18.32,4.4,32.34,4.13,50.78,1.79,9.24-1.18,19.44-2.57,25.68-12.86,3.8-6.27,6.41-13.4,8.57-20.84,1.05-3.63,2-7.31,3-11,.88-3.24,2.53-5.42,5.08-6.26Zm26-8.55h0a10.41,10.41,0,0,1,5.19-6.34c8.2-4.37,20.14-6.16,28.94-7.14a246.39,246.39,0,0,1,48.27-.3c3.57.31,11.9,1.9,15,4.51,2.29,1.93,3.15,4.86,3.32,8.29.43,8.68-1.19,19-2.78,27.48-1.09,5.77-4,15.59-7,20.16a16.77,16.77,0,0,1-8.43,6.52,47.2,47.2,0,0,1-5.36,1.64c-15.4,4-30.19,3.35-45.67.92-3.5-.55-7-1.34-10.44-2.15-5.83-1.35-9.38-3.84-12.83-9.48-4-6.53-7-18.06-8.18-26.14a68.7,68.7,0,0,1-.88-11.83,22,22,0,0,1,.84-6.14Zm-37.86,0h0a22,22,0,0,1,.84,6.14,68.7,68.7,0,0,1-.88,11.83c-1.17,8.08-4.2,19.61-8.18,26.14-3.45,5.64-7,8.13-12.83,9.48-3.47.81-6.94,1.6-10.44,2.15-15.48,2.43-30.27,3.07-45.67-.92a47.2,47.2,0,0,1-5.36-1.64,16.77,16.77,0,0,1-8.43-6.52c-3-4.57-5.87-14.39-7-20.16-1.59-8.46-3.21-18.8-2.78-27.48.17-3.43,1-6.36,3.31-8.29,3.08-2.61,11.41-4.2,15-4.51a246.39,246.39,0,0,1,48.27.3c8.8,1,20.74,2.77,28.94,7.14A10.44,10.44,0,0,1,239.19,185.51Z" style="fill:#3f3d3d;fill-rule:evenodd"/><path d="M155.24,163.41c-6.08,2.52,4-14,33.93-14.62C224,148,234.64,164.8,220.9,160,191.27,149.6,164.89,159.41,155.24,163.41Z" style="fill:#43231a;fill-rule:evenodd"/><path d="M190.57,207a10.27,10.27,0,1,0-10.26-10.27A10.29,10.29,0,0,0,190.57,207Z" style="fill:#3f3d3d;fill-rule:evenodd"/><path d="M325.66,207a10.27,10.27,0,1,0-10.27-10.27A10.29,10.29,0,0,0,325.66,207Z" style="fill:#3f3d3d;fill-rule:evenodd"/><path d="M367,163.41c6.08,2.52-4-14-33.94-14.62-34.85-.76-45.46,16-31.73,11.19C331,149.6,357.35,159.41,367,163.41Z" style="fill:#43231a;fill-rule:evenodd"/><path d="M286.93,286.2a26.63,26.63,0,1,1-52.52,6,27.58,27.58,0,0,1,.67-6Z" style="fill:#c0805d;fill-rule:evenodd"/><path d="M238.82,260.4c-.12,0-.14-.14,0-.32a2,2,0,0,1,.84-1.49c4.21-8.12,12.51-31.81,16.32-57.86,4.16.26-4.14,44.34-7.71,54.86a76.18,76.18,0,0,1,12.77-1c12.27,0,22.22,2.45,22.22,5.48s-10,5.49-22.22,5.49C249.16,265.57,239.48,263.28,238.82,260.4Z" style="fill:#d6ae7f;fill-rule:evenodd"/></svg>