<svg xmlns="http://www.w3.org/2000/svg" width="280" height="55" viewBox="0 0 280 55"><path d="M82.639,54.552a5.775,5.775,0,0,1-1.989-1.259,5.618,5.618,0,0,1-1.284-1.936,6.937,6.937,0,0,1,0-4.944,5.662,5.662,0,0,1,1.284-1.941A5.808,5.808,0,0,1,82.639,43.2a7.539,7.539,0,0,1,5.141,0,5.785,5.785,0,0,1,1.993,1.268,5.664,5.664,0,0,1,1.285,1.941,6.95,6.95,0,0,1,0,4.944,5.62,5.62,0,0,1-1.285,1.936,5.752,5.752,0,0,1-1.993,1.259,7.595,7.595,0,0,1-5.141,0Zm.7-10.067a4.013,4.013,0,0,0-1.431.933A4.122,4.122,0,0,0,81,46.9a6.276,6.276,0,0,0,0,3.961,4.122,4.122,0,0,0,.914,1.481,3.945,3.945,0,0,0,1.431.928,5.575,5.575,0,0,0,3.737,0,3.908,3.908,0,0,0,1.427-.928,4.149,4.149,0,0,0,.909-1.481,6.26,6.26,0,0,0,0-3.961,4.148,4.148,0,0,0-.909-1.485,3.975,3.975,0,0,0-1.427-.933,5.518,5.518,0,0,0-3.737,0Zm195.319,10.39a.6.6,0,0,1-.375-.109.67.67,0,0,1-.214-.275l-1.2-2.895h-5.734l-1.2,2.895a.653.653,0,0,1-.214.267.593.593,0,0,1-.375.117h-1.338l5.11-11.988h1.756L280,54.874Zm-4.847-9.825q-.093.288-.182.506l-2.007,4.869H276.4l-2.006-4.878a8.663,8.663,0,0,1-.384-1.129C273.942,44.646,273.878,44.856,273.815,45.049Zm-23.842,9.825V42.886h1.73V54.874Zm-18.077,0a.77.77,0,0,1-.7-.343l-3.317-4.284a.961.961,0,0,0-.33-.289,1.263,1.263,0,0,0-.535-.088h-1.311v5h-1.721V42.886H227.6a8.391,8.391,0,0,1,2.1.23,4.1,4.1,0,0,1,1.458.665,2.682,2.682,0,0,1,.852,1.05,3.31,3.31,0,0,1,.277,1.376,3.257,3.257,0,0,1-.214,1.188,3.114,3.114,0,0,1-.62.991,3.676,3.676,0,0,1-.99.748,5.111,5.111,0,0,1-1.324.469,1.778,1.778,0,0,1,.57.51l3.728,4.76Zm-6.189-6.182h1.811a4.682,4.682,0,0,0,1.333-.172,2.773,2.773,0,0,0,.963-.485,2.019,2.019,0,0,0,.584-.748,2.308,2.308,0,0,0,.2-.962,1.863,1.863,0,0,0-.754-1.615,3.826,3.826,0,0,0-2.243-.544h-1.891ZM206.5,54.874a.6.6,0,0,1-.375-.109.67.67,0,0,1-.214-.275l-1.2-2.895h-5.734l-1.2,2.895a.652.652,0,0,1-.214.267.593.593,0,0,1-.375.117H195.86l5.11-11.988h1.756l5.11,11.988Zm-4.847-9.825q-.093.288-.182.506l-2.007,4.869h4.771l-2.007-4.878a8.814,8.814,0,0,1-.383-1.129C201.779,44.646,201.715,44.856,201.652,45.049ZM177.81,54.874V42.886h1.73V54.874Zm-23.846,0V42.886h1.73V53.511h5.529v1.363Zm-19.512,0V42.886h1.73V54.874Zm-26.219,0V42.886h4.075a8.268,8.268,0,0,1,2.029.218,4.019,4.019,0,0,1,1.4.619,2.477,2.477,0,0,1,.812.982,3.148,3.148,0,0,1,.263,1.309,2.515,2.515,0,0,1-.147.854,2.438,2.438,0,0,1-.446.761,3.043,3.043,0,0,1-.749.627,4.288,4.288,0,0,1-1.056.452,4.052,4.052,0,0,1,2.114.946,2.393,2.393,0,0,1,.713,1.807,3.194,3.194,0,0,1-.3,1.388,3.011,3.011,0,0,1-.874,1.08,4.161,4.161,0,0,1-1.409.7,6.706,6.706,0,0,1-1.9.247Zm1.73-1.288h2.765a4.443,4.443,0,0,0,1.27-.159,2.413,2.413,0,0,0,.874-.447,1.729,1.729,0,0,0,.5-.686,2.315,2.315,0,0,0,.161-.874,1.756,1.756,0,0,0-.7-1.468,3.448,3.448,0,0,0-2.118-.539h-2.756Zm0-5.33h2.283a4.682,4.682,0,0,0,1.266-.151,2.615,2.615,0,0,0,.887-.418,1.642,1.642,0,0,0,.522-.648,2.016,2.016,0,0,0,.17-.832,1.787,1.787,0,0,0-.678-1.548,3.6,3.6,0,0,0-2.1-.493h-2.345ZM60.656,54.874V46.065c0-.117,0-.243.009-.376s.014-.27.027-.41l-4.379,7.5a.691.691,0,0,1-.624.376h-.25a.692.692,0,0,1-.624-.376l-4.477-7.52c.018.145.031.287.04.427s.013.267.013.384v8.809H48.876V42.886h1.276a1.194,1.194,0,0,1,.357.042.5.5,0,0,1,.241.235l4.414,7.378a3.041,3.041,0,0,1,.219.423q.093.222.182.447c.059-.156.122-.306.188-.447s.139-.286.223-.431L60.3,43.163a.5.5,0,0,1,.241-.235,1.193,1.193,0,0,1,.357-.042h1.276V54.874Zm-30.133,0a.775.775,0,0,1-.343-.067.838.838,0,0,1-.272-.226l-7.393-9.026c.012.139.021.276.026.41s.009.256.009.368v8.541H21.035V42.886h.891a.824.824,0,0,1,.344.055.865.865,0,0,1,.254.221l7.4,9.035c-.018-.145-.03-.286-.036-.423s-.009-.269-.009-.4V42.886H31.4V54.874Zm-29,0V42.886h1.73V54.874ZM275.641,36.668a3.806,3.806,0,0,1-.831-.077,2.471,2.471,0,0,1-.584-.2,1.846,1.846,0,0,1-.454-.333c-.138-.136-.277-.281-.415-.435L260.512,21.06c-.19-.205-.368-.38-.533-.525a2.468,2.468,0,0,0-.57-.371,2.694,2.694,0,0,0-.753-.217,7.3,7.3,0,0,0-1.051-.064h-2.283V36.668h-5.009V0h5.009V16.069h1.894a4.164,4.164,0,0,0,1.569-.243,3.054,3.054,0,0,0,1.1-.832L272.267,1.177a3.908,3.908,0,0,1,1.1-.909A3.021,3.021,0,0,1,274.733,0h4.281L264.845,15.788a12.244,12.244,0,0,1-1.025,1,4.558,4.558,0,0,1-1.025.665,3.673,3.673,0,0,1,1.271.691,10.455,10.455,0,0,1,1.142,1.151L280,36.668Zm-62.176,0V0h22.914V4.043H218.524V16.223h14.454v3.889H218.524V32.625h17.854v4.043Zm-28.519,0V4.171H172.879V0h29.116V4.171H189.98v32.5Zm-19.618,0a1.686,1.686,0,0,1-1.09-.333,2.055,2.055,0,0,1-.623-.844l-3.477-8.854H143.452l-3.477,8.854a1.994,1.994,0,0,1-.623.818,1.671,1.671,0,0,1-1.09.359h-3.892L149.238,0h5.112l14.869,36.668Zm-14.1-30.054q-.272.882-.532,1.548l-5.839,14.892h13.883L152.9,8.137a27.8,27.8,0,0,1-1.116-3.454Q151.5,5.731,151.223,6.615ZM105.772,36.668V0h5.035V32.5H126.9v4.171Zm-21.175,0V0h5.034V36.668Zm-31.555,0L37.887,0H41.91A1.688,1.688,0,0,1,43,.333a2.045,2.045,0,0,1,.623.844l10.51,25.87a17.959,17.959,0,0,1,.662,1.893q.3,1.024.584,2.124.233-1.1.506-2.124a14.67,14.67,0,0,1,.636-1.893L66.977,1.177A2.139,2.139,0,0,1,67.6.371,1.635,1.635,0,0,1,68.69,0h4.048L57.583,36.668Zm-22.084,0a1.688,1.688,0,0,1-1.09-.333,2.045,2.045,0,0,1-.623-.844l-3.477-8.854H9.082L5.605,35.491a2,2,0,0,1-.622.818,1.673,1.673,0,0,1-1.09.359H0L14.869,0h5.112l14.87,36.668ZM16.854,6.615q-.272.882-.532,1.548L10.484,23.055H24.367L18.529,8.137a27.631,27.631,0,0,1-1.117-3.454Q17.128,5.731,16.854,6.615Z" fill="#141313"/></svg>