<svg xmlns="http://www.w3.org/2000/svg" viewBox="0 0 512 512"><title>male-2</title><circle cx="256" cy="256" r="256" style="fill:#c1272d"/><polygon points="215.8 376.51 214.93 348.44 303.54 348.43 302.71 375.62 215.8 376.51" style="fill:#538cbd;fill-rule:evenodd"/><path d="M200.05,434.28c-2.82-2.12-66-31.84-66-31.84C106,411.71,99.68,474.82,96.82,512H164Z" style="fill:#5393cf;fill-rule:evenodd"/><path d="M312,434.28c2.82-2.12,66-31.84,66-31.84C406,411.71,412.32,474.82,415.18,512H348Z" style="fill:#5393cf;fill-rule:evenodd"/><path d="M256,333.26H226.36V352c0,11.63-1.92,9.21-12.78,15.25,0,0-10.47,8.59-13.66,9.61,13.17,42.4,23.75,86.68,49.49,124.92h15.3c25.74-38.24,34.2-82.52,47.37-124.92-3.19-1-13.66-9.61-13.66-9.61-10.86-6-12.8-3.62-12.78-15.25V333.26Z" style="fill:#e4b480;fill-rule:evenodd"/><path d="M258.65,436.22s-9.25-12.2-13.5-19.12c-12.87-20.9-31.16-49.49-31.58-49.72-15.8,7.2-73.4,29.77-79.85,35.35,5.24,11.46,13.17,58.6,20,109.27H358.25c6.86-50.67,14.79-97.81,20-109.27-6.45-5.58-64-28.15-79.85-35.35-.39.22-11.82,29.67-25.11,49.71C267.81,425.41,258.65,436.22,258.65,436.22Z" style="fill:#4e89cb;fill-rule:evenodd"/><path d="M228.35,393c1.59,0,10.52,1.41,10.52,1.41l6.28,22.73L222.7,406.73Z" style="fill:#4479b0;fill-rule:evenodd"/><path d="M214.93,348.44l23.94,45.93s-24.65,24.2-24.3,23.14-11.06-43.87-10.21-46.14S214.93,348.44,214.93,348.44Z" style="fill:#63a2d9;fill-rule:evenodd"/><path d="M290.12,393c-1.59,0-10.52,1.41-10.52,1.41l-6.28,22.73,22.45-10.37Z" style="fill:#4479b0;fill-rule:evenodd"/><path d="M303.54,348.43,279.6,394.36s24.65,24.2,24.29,23.14,11.07-43.87,10.22-46.14S303.54,348.43,303.54,348.43Z" style="fill:#63a2d9;fill-rule:evenodd"/><path d="M332.42,196.91c-4.25,22.08,10.05,40.47,31.93,44.43s43-8,47.28-30.09a40,40,0,0,0-31.93-47.16C357.82,160.13,336.65,174.82,332.42,196.91Z" style="fill:#e7be86;fill-rule:evenodd"/><path d="M179.75,196.91C184,219,169.7,237.38,147.82,241.34s-43-8-47.28-30.09a40,40,0,0,1,31.93-47.16C154.35,160.13,175.52,174.82,179.75,196.91Z" style="fill:#e7be86;fill-rule:evenodd"/><path d="M365.27,56.76c-21.36-29-54.68-48.08-90-49.49l-1.83-.07,0-1.38L256,6.51l-17.43-.69,0,1.38-1.83.07c-35.37,1.41-68.68,20.47-90,49.49s-24.22,65.63-22.54,100.67c4.33,90,12.38,190.85,132.18,191.85,120.16,1,127.09-102.47,131.42-191.85C389.48,122.39,386.65,85.81,365.27,56.76Z" style="fill:#eac797;fill-rule:evenodd"/><path d="M137.26,186.41c1.59-33.18,2-93.19,31.06-93.19.75,0,88.26-36.27,189-36.27,23.19,0,28.95,65.88,29.4,109.24.35,37.33-6.66,54.56-3.95,55.72,3.16,1.35,16.08-20.31,16.05-73,0-23.77-.62-60.64-21.32-95.49C370.24,41.2,365.42,26.4,350.4,16.37,314.94-7.35,239.14-1.93,198.33,11.49c-112.88,37.15-72.73,210-69.08,209.61C133.68,220.67,137,191,137.26,186.41Z" style="fill:#b18f48;fill-rule:evenodd"/><path d="M270.06,37.63c14.13-.71,83.3,17.85,83.3,17.85-51.64,51.34-135.5,85.77-208.36,72.23,0,0,33.21-21.19,30.73-19.07s-30.86,8.28-40.62,7.06-9.3-4.76-9.3-4.76C182.4,58.76,180.94,59.27,270.06,37.63Z" style="fill:#b18f48;fill-rule:evenodd"/><path d="M240.42,173.29c-1.14-1.3-4.48-5.39-9.58-7.23-24-8.64-90.33-5.06-108-.65-2.27.57-2.51.49-2.76,2s-.32,10.64.41,12,4.22,1.95,7.3,6.49c5.53,8.15,5.15,37.73,18.36,51.75,13.68,14.52,65.53,15.05,79.56-4.28,9.26-12.77,13.85-27,18.82-40.65,3-3.08,5.61-3.33,8-3.65a24.49,24.49,0,0,1,7,0c2.35.32,4.95.57,8,3.65,5,13.67,9.56,27.88,18.82,40.65,14,19.33,65.88,18.8,79.56,4.28,13.21-14,12.83-43.6,18.35-51.75,3.09-4.54,6.58-5.11,7.31-6.49s.65-10.48.41-12-.49-1.46-2.76-2c-17.65-4.41-84-8-108,.65-5.1,1.84-8.44,5.93-9.58,7.23-2,.77-5.25,1.14-15.58.91-10.33.23-13.58-.14-15.58-.91ZM365,170.12h0a10.91,10.91,0,0,1,8.69,7.15c2.59,6.65,1.46,21.84.08,29.3s-4.63,19.16-9.26,24.93c-14.31,17.83-61.71,15.71-73.52.35-9.09-11.82-24.63-46.94-5.63-56.94,16.28-8.57,63-10.32,79.64-4.79Zm-218.06,0h0c16.6-5.53,63.36-3.78,79.64,4.79,19,10,3.46,45.12-5.63,56.94-11.81,15.36-59.21,17.48-73.52-.35-4.63-5.77-7.88-17.46-9.26-24.93s-2.51-22.65.08-29.3A10.91,10.91,0,0,1,147,170.12Z" style="fill:#3f3d3d;fill-rule:evenodd"/><path d="M189.05,214.94a10.25,10.25,0,1,0-10.24-10.24A10.27,10.27,0,0,0,189.05,214.94Z" style="fill:#3f3d3d;fill-rule:evenodd"/><path d="M323,214.94A10.25,10.25,0,1,0,312.7,204.7,10.26,10.26,0,0,0,323,214.94Z" style="fill:#3f3d3d;fill-rule:evenodd"/><path d="M305.29,279.6c-9.41,12-26.69,20.12-46.46,20.12s-37.06-8.08-46.47-20.12c11.47,8.29,27.51,16.68,45.94,16.68S293.82,287.89,305.29,279.6Z" style="fill:#c0805d;fill-rule:evenodd"/><path d="M235.36,265.62c-.12,0-.14-.14,0-.31a2,2,0,0,1,.84-1.49c4.21-8.1,12.48-31.73,16.28-57.72,4.16.25-4.12,44.23-7.69,54.73a75.89,75.89,0,0,1,12.74-1c12.24,0,22.17,2.45,22.17,5.47s-9.93,5.48-22.17,5.48C245.67,270.79,236,268.5,235.36,265.62Z" style="fill:#d6ae7f;fill-rule:evenodd"/><path d="M152.85,152.34c-3.31-5.68,14.44-8.35,32.44-8.22,30.19.22,46.34,15,31.83,14.34C206.28,158,153.82,154,152.85,152.34Z" style="fill:#b18f48;fill-rule:evenodd"/><path d="M358.13,151.63c3.31-5.68-14.44-8.35-32.44-8.22-30.19.22-46.34,15-31.83,14.34C304.7,157.28,357.16,153.29,358.13,151.63Z" style="fill:#b18f48;fill-rule:evenodd"/></svg>