<svg xmlns="http://www.w3.org/2000/svg" viewBox="0 0 512 512"><title>male-1</title><circle cx="256" cy="256" r="256" style="fill:#fbb03b"/><path d="M200.34,434.73c-2.81-2.11-65.59-31.66-65.59-31.66-27.94,9.22-34.21,72-37.06,108.93h66.77Z" style="fill:#443f48;fill-rule:evenodd"/><path d="M311.59,434.73c2.81-2.11,65.59-31.66,65.59-31.66,27.95,9.22,34.21,72,37.06,108.93H347.47Z" style="fill:#443f48;fill-rule:evenodd"/><path d="M256,334.28H226.5v18.61c0,11.56-1.91,9.15-12.71,15.16,0,0-10.41,8.54-13.59,9.56C213.3,419.76,222.77,474,248.37,512h15.2c25.59-38,35.06-92.24,48.16-134.39-3.18-1-13.59-9.56-13.59-9.56-10.8-6-12.72-3.6-12.71-15.16V334.28Z" style="fill:#e4b480;fill-rule:evenodd"/><path d="M256,435.6c-48.66-3.84-41.64-67.08-42.19-67.4-15.71,7.17-73,29.6-79.39,35.16,5.2,11.39,13.09,58.26,19.92,108.64H357.63c6.82-50.38,14.71-97.25,19.91-108.64-6.41-5.56-63.68-28-79.39-35.16C297.6,368.52,304.62,431.76,256,435.6Z" style="fill:#4c4551;fill-rule:evenodd"/><path d="M334.81,203.07c-4.22,24,10,43.93,31.75,48.23s42.8-8.69,47-32.66-10-46.89-31.75-51.18S339,179.1,334.81,203.07Z" style="fill:#e7be86;fill-rule:evenodd"/><path d="M183,203.07c4.22,24-10,43.93-31.75,48.23s-42.8-8.69-47-32.66,10-46.89,31.75-51.18S178.81,179.1,183,203.07Z" style="fill:#e7be86;fill-rule:evenodd"/><path d="M367.47,60.35c-21.24-28.86-54.36-47.81-89.53-49.2l-1.82-.08,0-1.37-17.33.69L241.5,9.7l0,1.37-1.82.08c-35.17,1.39-68.29,20.34-89.53,49.2s-24.08,65.26-22.4,100.09c1.26,26.32,5.92,68.82,7.23,95.15,33.81,126.44,216.12,128.51,247.63,0,1.3-26.33,6-68.83,7.23-95.15C391.55,125.61,388.73,89.23,367.47,60.35Z" style="fill:#eac797;fill-rule:evenodd"/><path d="M151.19,108.83c-1.68,3.64,8-32.88,29.15-33.51,22.17-.66,160,7.72,167-1.5,23.35,29.55,40.4,146.74,41.73,146.47,3.1-.6,3.46-12.09,3.77-14.54,2.23-17.29,2.83-35,2.82-52.41,0-32.13,9.3-94-48.83-132.52C311.11-2.89,237.22-5.25,196.08,8.18c-28.65,9.35-56.12,33.7-66.34,62.08-11.21,31.15-10.92,55.5-7.23,117.21.4,6.69,1.19,13.39,2.12,20a128.8,128.8,0,0,0,2.26,13.26C132.71,244.27,133.26,136.6,151.19,108.83Z" style="fill:#965c43;fill-rule:evenodd"/><path d="M368.8,49.51c-4.5,45-62.89,79.91-106.26,79.91l12.65-11.94c-48.75,14.84-76,4.73-75.88,4.75,1.76.35,20.2-8.26,20.2-8.26-27.71.84-55.71,1.25-77.17-18.85l31-55.09Z" style="fill:#965c43;fill-rule:evenodd"/><path d="M192.27,222.74a10.19,10.19,0,1,0-10.19-10.19A10.2,10.2,0,0,0,192.27,222.74Z" style="fill:#3f3d3d;fill-rule:evenodd"/><path d="M325.4,222.74a10.19,10.19,0,1,0-10.19-10.19A10.2,10.2,0,0,0,325.4,222.74Z" style="fill:#3f3d3d;fill-rule:evenodd"/><path d="M157.22,184c-3.72-5.37,13.66-9.4,31.52-10.67,29.94-2.12,47.09,11.25,32.66,11.75C210.62,185.45,158.31,185.57,157.22,184Z" style="fill:#965c43;fill-rule:evenodd"/><path d="M354.5,184.78c3.93-5.22-13.29-9.92-31.08-11.88-29.84-3.29-47.5,9.4-33.1,10.46C301.08,184.16,353.34,186.31,354.5,184.78Z" style="fill:#965c43;fill-rule:evenodd"/><path d="M292.54,284.75c-6.22,35-62.62,35-68.84,0C240.52,288.62,272,288.64,292.54,284.75Z" style="fill:#c0805d;fill-rule:evenodd"/><path d="M236.17,264.16c-.11,0-.14-.13,0-.3a2,2,0,0,1,.83-1.49c4.18-8.06,12.41-31.55,16.19-57.39,4.13.25-4.1,44-7.65,54.42a76.15,76.15,0,0,1,12.67-1c12.17,0,22,2.44,22,5.45s-9.87,5.44-22,5.44C246.43,269.3,236.82,267,236.17,264.16Z" style="fill:#d6ae7f;fill-rule:evenodd"/></svg>